<svg xmlns="http://www.w3.org/2000/svg" viewBox="0 0 27.94 38.987500000000004" x="0px" y="0px"><title>Ресурс 32</title><g data-name="Слой 2"><g data-name="Слой 1"><path d="M1.29,31.19a1.36,1.36,0,0,1-1.24-.93,1,1,0,0,1,0-.38C.22,26.49.95,23.07,4.73,21a1.16,1.16,0,0,1,1.55.59,1.1,1.1,0,0,1,0,.84h0a5.36,5.36,0,0,0-.35,2.26,6,6,0,0,0,2.22-.65,1,1,0,0,1,.5-.13A1.15,1.15,0,0,1,9.78,25.1a1,1,0,0,1-.07.36C8,30,3.74,30.76,1.47,31.17Zm2.62-7A8,8,0,0,0,2.08,29a8,8,0,0,0,4.65-2.37,9.55,9.55,0,0,1-1.57.14A1.14,1.14,0,0,1,4,25.59,10.17,10.17,0,0,1,3.91,24.14Zm2,1.28v.08A.45.45,0,0,0,6,25.42Z"/><path d="M15.23,28.4a2,2,0,0,1-.51-.07,2,2,0,0,1-1.49-1.77l0-.21c-.08-1-.21-2.48-.32-3.37l-1.68.67a1.28,1.28,0,0,1-1.58-.48,1,1,0,0,1-.14-.26,4.49,4.49,0,0,0-1-1.36A5.27,5.27,0,0,0,7,20.71a1.26,1.26,0,0,1-.72-.55,1.39,1.39,0,0,1-.17-1.06l.46-1.75c-1,0-2.63,0-3.54.07a2,2,0,0,1-1.35-3.54,15,15,0,0,1,8.27-3.56,25.46,25.46,0,0,1,7.56-7.17,1,1,0,1,1,1,1.71,23.57,23.57,0,0,0-7.16,6.89,1,1,0,0,1-.42.35,1.23,1.23,0,0,1-.67.2,13,13,0,0,0-7.35,3.13,28.75,28.75,0,0,1,4.74,0,1.27,1.27,0,0,1,.83.56,1.35,1.35,0,0,1,.18,1.06l-.52,2a7.32,7.32,0,0,1,1.61,1A7.81,7.81,0,0,1,11,21.57l1.84-.74.21-.06a1.38,1.38,0,0,1,1.54.76,1.06,1.06,0,0,1,.06.14,33,33,0,0,1,.52,4.51l0,.21a12.84,12.84,0,0,0,2.25-7.79,1.27,1.27,0,0,1,.41-1A22.49,22.49,0,0,0,25.94,2a24.82,24.82,0,0,0-3.59,1,1,1,0,1,1-.7-1.87A25.25,25.25,0,0,1,25.56,0a2,2,0,0,1,2.37,2.11,24.65,24.65,0,0,1-8.45,16.74,14.79,14.79,0,0,1-2.59,8.61A2,2,0,0,1,15.23,28.4ZM10.5,21.78l-.11,0ZM7.27,17.4h0Zm3.59-5.26h0ZM17.58,15a3.67,3.67,0,0,1-.13-7.35A3.61,3.61,0,0,1,20,8.6,3.66,3.66,0,0,1,17.58,15Zm0-5.35h-.07a1.69,1.69,0,1,0,1.16.43h0A1.57,1.57,0,0,0,17.61,9.65Z"/></g></g><text x="0" y="46.19" fill="#000000" font-size="5px" font-weight="bold" font-family="'Helvetica Neue', Helvetica, Arial-Unicode, Arial, Sans-serif">Created by Makarenko Andrey</text><text x="0" y="51.19" fill="#000000" font-size="5px" font-weight="bold" font-family="'Helvetica Neue', Helvetica, Arial-Unicode, Arial, Sans-serif">from the Noun Project</text></svg>